<svg width="656" height="90" viewBox="0 0 656 90" fill="none" xmlns="http://www.w3.org/2000/svg">
<path d="M20.2066 32.3719V23.2761C20.2066 15.9691 24.8145 9.45634 31.7049 7.02443C35.4166 5.71441 39.4649 5.71441 43.1767 7.02443C50.0671 9.45634 54.6749 15.9691 54.6749 23.2761V32.3719" stroke="black" stroke-width="8.11019"/>
<rect x="5" y="34.3994" width="66.9091" height="50.6887" rx="10.1377" stroke="black" stroke-width="8.11019"/>
<circle cx="37.4408" cy="54.6749" r="8.1102" stroke="black" stroke-width="8.11019"/>
<rect x="36.427" y="62.7854" width="2.02755" height="10.1377" rx="1.01377" stroke="black" stroke-width="6.08265"/>
<path d="M111.152 19.5098C111.152 17.3006 112.943 15.5098 115.152 15.5098H144.199C147.041 15.5098 149.619 16.2129 151.934 17.6191C154.277 18.9961 156.138 20.8418 157.515 23.1562C158.921 25.4707 159.624 28.0488 159.624 30.8906V37.1309C159.624 39.9727 158.936 42.5361 157.559 44.8213C156.211 47.1064 154.365 48.9229 152.021 50.2705C151.912 50.3334 151.802 50.3948 151.692 50.4547C148.82 52.0115 146.839 55.9948 148.756 58.6394L158.188 71.6526C160.104 74.2972 158.215 78 154.949 78H153.535C152.253 78 151.049 77.3855 150.296 76.3474L134.059 53.9446C133.307 52.9065 132.102 52.292 130.82 52.292H129.698C127.489 52.292 125.698 50.5011 125.698 48.292V47.0635C125.698 44.8543 127.489 43.0635 129.698 43.0635H144.199C145.928 43.0635 147.393 42.4775 148.594 41.3057C149.795 40.1045 150.396 38.6689 150.396 36.999V30.8906C150.396 29.1914 149.795 27.7412 148.594 26.54C147.393 25.3389 145.928 24.7383 144.199 24.7383H124.425C122.216 24.7383 120.425 26.5291 120.425 28.7383V74C120.425 76.2091 118.634 78 116.425 78H115.152C112.943 78 111.152 76.2091 111.152 74V19.5098Z" fill="black"/>
<path d="M176.477 15.5098C177.761 15.5098 178.966 16.1254 179.718 17.165L192.41 34.706C194.009 36.9162 197.303 36.9122 198.897 34.6981L211.513 17.1729C212.264 16.1287 213.473 15.5098 214.759 15.5098H216.142C219.404 15.5098 221.295 19.2044 219.386 21.85L201.161 47.1131C200.67 47.7945 200.405 48.6132 200.405 49.4534V74C200.405 76.2091 198.614 78 196.405 78H194.913C192.704 78 190.913 76.2091 190.913 74V49.4592C190.913 48.6155 190.646 47.7934 190.151 47.1104L171.832 21.8586C169.914 19.2142 171.803 15.5098 175.07 15.5098H176.477Z" fill="black"/>
<path d="M231.914 19.5098C231.914 17.3006 233.705 15.5098 235.914 15.5098H265.137C268.389 15.5098 271.348 16.3008 274.014 17.8828C276.709 19.4648 278.848 21.5889 280.43 24.2549C282.012 26.8916 282.803 29.8359 282.803 33.0879V60.5977C282.803 63.791 282.012 66.7061 280.43 69.3428C278.848 71.9795 276.709 74.0889 274.014 75.6709C271.348 77.2236 268.389 78 265.137 78H235.914C233.705 78 231.914 76.2091 231.914 74V19.5098ZM265.137 68.7275C267.48 68.7275 269.473 67.9219 271.113 66.3105C272.754 64.6992 273.574 62.751 273.574 60.4658V33.0879C273.574 30.7734 272.754 28.8105 271.113 27.1992C269.473 25.5586 267.48 24.7383 265.137 24.7383H245.187C242.977 24.7383 241.187 26.5291 241.187 28.7383V64.7275C241.187 66.9367 242.977 68.7275 245.187 68.7275H265.137Z" fill="black"/>
<path d="M294.229 19.5098C294.229 17.3006 296.019 15.5098 298.229 15.5098H338.7C340.909 15.5098 342.7 17.3006 342.7 19.5098V20.7383C342.7 22.9474 340.909 24.7383 338.7 24.7383H307.501C305.292 24.7383 303.501 26.5291 303.501 28.7383V64.7275C303.501 66.9367 305.292 68.7275 307.501 68.7275H338.7C340.909 68.7275 342.7 70.5184 342.7 72.7275V74C342.7 76.2091 340.909 78 338.7 78H298.229C296.019 78 294.229 76.2091 294.229 74V19.5098ZM308.774 44.8662C308.774 42.6571 310.565 40.8662 312.774 40.8662H338.7C340.909 40.8662 342.7 42.6571 342.7 44.8662V46.0947C342.7 48.3039 340.909 50.0947 338.7 50.0947H312.774C310.565 50.0947 308.774 48.3039 308.774 46.0947V44.8662Z" fill="black"/>
<path d="M380.537 19.5098C380.537 17.3006 382.328 15.5098 384.537 15.5098H385.766C387.975 15.5098 389.766 17.3006 389.766 19.5098V60.5098C389.766 62.7949 390.571 64.7432 392.183 66.3545C393.794 67.9658 395.728 68.7715 397.983 68.7715H424.965C427.174 68.7715 428.965 70.5623 428.965 72.7715V74C428.965 76.2091 427.174 78 424.965 78H397.983C394.79 78 391.86 77.2236 389.194 75.6709C386.558 74.0889 384.448 71.9795 382.866 69.3428C381.313 66.6768 380.537 63.7324 380.537 60.5098V19.5098Z" fill="black"/>
<path d="M453.899 18.1617C454.469 16.5712 455.976 15.5098 457.665 15.5098H463.59C465.279 15.5098 466.786 16.5712 467.356 18.1617L486.86 72.652C487.793 75.2574 485.861 78 483.094 78H481.692C480.008 78 478.505 76.9454 477.931 75.362L473.031 61.8294C472.457 60.246 470.954 59.1914 469.27 59.1914H460.33C457.557 59.1914 455.625 56.4379 456.569 53.8302L457.014 52.6017C457.587 51.0179 459.091 49.9629 460.775 49.9629H463.032C465.806 49.9629 467.738 47.2086 466.793 44.6007L464.406 38.0106C463.133 34.4949 458.161 34.4931 456.885 38.008L443.325 75.3649C442.751 76.9467 441.248 78 439.565 78H438.161C435.393 78 433.462 75.2574 434.395 72.652L453.899 18.1617Z" fill="black"/>
<path d="M485.303 19.5098C485.303 17.3006 487.094 15.5098 489.303 15.5098H532.191C534.401 15.5098 536.191 17.3006 536.191 19.5098V20.7383C536.191 22.9474 534.401 24.7383 532.191 24.7383H519.405C517.196 24.7383 515.405 26.5291 515.405 28.7383V74C515.405 76.2091 513.614 78 511.405 78H510.089C507.88 78 506.089 76.2091 506.089 74V28.7383C506.089 26.5291 504.298 24.7383 502.089 24.7383H489.303C487.094 24.7383 485.303 22.9474 485.303 20.7383V19.5098Z" fill="black"/>
<path d="M543.223 33.0879C543.223 29.8359 544.028 26.8916 545.64 24.2549C547.251 21.5889 549.404 19.4648 552.1 17.8828C554.795 16.3008 557.783 15.5098 561.064 15.5098H589.804C592.013 15.5098 593.804 17.3006 593.804 19.5098V20.7383C593.804 22.9474 592.013 24.7383 589.804 24.7383H561.064C558.691 24.7383 556.67 25.5586 555 27.1992C553.33 28.8105 552.495 30.7734 552.495 33.0879V60.5977C552.495 62.8242 553.33 64.7432 555 66.3545C556.67 67.9365 558.691 68.7275 561.064 68.7275H589.804C592.013 68.7275 593.804 70.5184 593.804 72.7275V74C593.804 76.2091 592.013 78 589.804 78H561.064C557.783 78 554.795 77.2236 552.1 75.6709C549.404 74.1182 547.251 72.0381 545.64 69.4307C544.028 66.7939 543.223 63.8936 543.223 60.7295V33.0879Z" fill="black"/>
<path d="M604.834 19.5098C604.834 17.3006 606.625 15.5098 608.834 15.5098H610.106C612.316 15.5098 614.106 17.3006 614.106 19.5098V36.8662C614.106 39.0753 615.897 40.8662 618.106 40.8662H642.494C644.703 40.8662 646.494 39.0753 646.494 36.8662V19.5098C646.494 17.3006 648.285 15.5098 650.494 15.5098H651.723C653.932 15.5098 655.723 17.3006 655.723 19.5098V74C655.723 76.2091 653.932 78 651.723 78H650.494C648.285 78 646.494 76.2091 646.494 74V54.0947C646.494 51.8856 644.703 50.0947 642.494 50.0947H618.106C615.897 50.0947 614.106 51.8856 614.106 54.0947V74C614.106 76.2091 612.316 78 610.106 78H608.834C606.625 78 604.834 76.2091 604.834 74V19.5098Z" fill="black"/>
</svg>
